<?xml version="1.0" standalone="no"?>
<!DOCTYPE svg PUBLIC "-//W3C//DTD SVG 20010904//EN"
 "http://www.w3.org/TR/2001/REC-SVG-20010904/DTD/svg10.dtd">
<svg version="1.0" xmlns="http://www.w3.org/2000/svg"
 width="80.000000pt" height="44.000000pt" viewBox="0 0 80.000000 44.000000"
 preserveAspectRatio="xMidYMid meet">

<g transform="translate(0.000000,44.000000) scale(0.100000,-0.100000)"
fill="#000000" stroke="none">
<path d="M581 340 c-87 -109 -213 -234 -291 -286 -36 -24 -57 -44 -48 -44 35
0 131 43 202 91 89 59 246 220 246 252 0 23 -25 67 -39 67 -4 0 -36 -36 -70
-80z"/>
<path d="M666 223 c-6 -14 -9 -15 -16 -3 -6 10 -21 2 -67 -40 -32 -29 -85 -71
-118 -92 -48 -32 -54 -38 -30 -33 87 19 265 135 265 173 0 18 -27 14 -34 -5z"/>
<path d="M127 89 c7 -26 85 -63 113 -54 11 4 20 9 20 13 -1 16 -75 53 -97 49
-12 -2 -20 0 -17 4 3 5 -1 9 -9 9 -10 0 -13 -7 -10 -21z"/>
<path d="M38 78 c-36 -13 -35 -24 4 -48 40 -24 95 -33 133 -21 17 5 23 10 14
10 -10 1 -40 17 -69 36 -29 19 -53 35 -54 34 0 0 -13 -5 -28 -11z"/>
</g>
</svg>
